<mxfile host="app.diagrams.net" modified="2020-10-19T02:10:27.863Z" agent="5.0 (Windows NT 10.0; Win64; x64) AppleWebKit/537.36 (KHTML, like Gecko) Chrome/86.0.4240.75 Safari/537.36" etag="W_Q8WQVzAjN3PTEO_pBv" version="13.7.7" type="github">
  <diagram id="_2AQAFKxMr5rAjmowtVD" name="Page-1">
    <mxGraphModel dx="925" dy="537" grid="1" gridSize="10" guides="1" tooltips="1" connect="1" arrows="1" fold="1" page="1" pageScale="1" pageWidth="1169" pageHeight="1654" math="0" shadow="0">
      <root>
        <mxCell id="0" />
        <mxCell id="1" parent="0" />
        <mxCell id="bVbc2CpXDPPesVSVmDMA-26" value="" style="group" vertex="1" connectable="0" parent="1">
          <mxGeometry x="100" y="30" width="510" height="460" as="geometry" />
        </mxCell>
        <mxCell id="bVbc2CpXDPPesVSVmDMA-1" value="&lt;font style=&quot;font-size: 57px&quot; color=&quot;#0066cc&quot;&gt;A&lt;/font&gt;" style="ellipse;whiteSpace=wrap;html=1;aspect=fixed;fillColor=#dae8fc;strokeColor=#6c8ebf;" vertex="1" parent="bVbc2CpXDPPesVSVmDMA-26">
          <mxGeometry x="150" width="180" height="180" as="geometry" />
        </mxCell>
        <mxCell id="bVbc2CpXDPPesVSVmDMA-2" value="" style="ellipse;whiteSpace=wrap;html=1;aspect=fixed;fillColor=#dae8fc;strokeColor=#6c8ebf;" vertex="1" parent="bVbc2CpXDPPesVSVmDMA-26">
          <mxGeometry x="70" y="260" width="110" height="110" as="geometry" />
        </mxCell>
        <mxCell id="bVbc2CpXDPPesVSVmDMA-4" value="&lt;span style=&quot;color: rgba(0 , 0 , 0 , 0) ; font-family: monospace ; font-size: 0px&quot;&gt;%3CmxGraphModel%3E%3Croot%3E%3CmxCell%20id%3D%220%22%2F%3E%3CmxCell%20id%3D%221%22%20parent%3D%220%22%2F%3E%3CmxCell%20id%3D%222%22%20value%3D%22%26lt%3Bb%26gt%3B%26lt%3Bfont%20style%3D%26quot%3Bfont-size%3A%2019px%26quot%3B%26gt%3BT%26lt%3B%2Ffont%26gt%3B%26lt%3B%2Fb%26gt%3B%22%20style%3D%22text%3Bhtml%3D1%3BstrokeColor%3Dnone%3BfillColor%3Dnone%3Balign%3Dcenter%3BverticalAlign%3Dmiddle%3BwhiteSpace%3Dwrap%3Brounded%3D0%3B%22%20vertex%3D%221%22%20parent%3D%221%22%3E%3CmxGeometry%20x%3D%22220%22%20y%3D%22220%22%20width%3D%2240%22%20height%3D%2220%22%20as%3D%22geometry%22%2F%3E%3C%2FmxCell%3E%3C%2Froot%3E%3C%2FmxGraphModel%3E&lt;/span&gt;T=100&lt;br&gt;P(+) = .5&lt;br&gt;P(-) = .5&lt;br&gt;Error = 1-.5=.5" style="shape=note;strokeWidth=2;fontSize=14;size=20;whiteSpace=wrap;html=1;fillColor=#fff2cc;strokeColor=#d6b656;fontColor=#666600;" vertex="1" parent="bVbc2CpXDPPesVSVmDMA-26">
          <mxGeometry x="280" y="20" width="100" height="80" as="geometry" />
        </mxCell>
        <mxCell id="bVbc2CpXDPPesVSVmDMA-5" value="" style="ellipse;whiteSpace=wrap;html=1;aspect=fixed;fillColor=#dae8fc;strokeColor=#6c8ebf;" vertex="1" parent="bVbc2CpXDPPesVSVmDMA-26">
          <mxGeometry x="300" y="260" width="110" height="110" as="geometry" />
        </mxCell>
        <mxCell id="bVbc2CpXDPPesVSVmDMA-6" value="" style="endArrow=classic;html=1;exitX=0;exitY=1;exitDx=0;exitDy=0;entryX=0.5;entryY=0;entryDx=0;entryDy=0;" edge="1" parent="bVbc2CpXDPPesVSVmDMA-26" source="bVbc2CpXDPPesVSVmDMA-1" target="bVbc2CpXDPPesVSVmDMA-2">
          <mxGeometry width="50" height="50" relative="1" as="geometry">
            <mxPoint x="350" y="240" as="sourcePoint" />
            <mxPoint x="400" y="190" as="targetPoint" />
          </mxGeometry>
        </mxCell>
        <mxCell id="bVbc2CpXDPPesVSVmDMA-7" value="&lt;b&gt;&lt;font style=&quot;font-size: 19px&quot;&gt;T&lt;/font&gt;&lt;/b&gt;" style="text;html=1;strokeColor=none;fillColor=none;align=center;verticalAlign=middle;whiteSpace=wrap;rounded=0;" vertex="1" parent="bVbc2CpXDPPesVSVmDMA-26">
          <mxGeometry x="120" y="190" width="40" height="20" as="geometry" />
        </mxCell>
        <mxCell id="bVbc2CpXDPPesVSVmDMA-9" value="&lt;b&gt;&lt;font style=&quot;font-size: 19px&quot;&gt;F&lt;/font&gt;&lt;/b&gt;" style="text;html=1;strokeColor=none;fillColor=none;align=center;verticalAlign=middle;whiteSpace=wrap;rounded=0;" vertex="1" parent="bVbc2CpXDPPesVSVmDMA-26">
          <mxGeometry x="320" y="190" width="40" height="20" as="geometry" />
        </mxCell>
        <mxCell id="bVbc2CpXDPPesVSVmDMA-10" value="" style="endArrow=classic;html=1;exitX=1;exitY=1;exitDx=0;exitDy=0;entryX=0.5;entryY=0;entryDx=0;entryDy=0;" edge="1" parent="bVbc2CpXDPPesVSVmDMA-26" source="bVbc2CpXDPPesVSVmDMA-1" target="bVbc2CpXDPPesVSVmDMA-5">
          <mxGeometry width="50" height="50" relative="1" as="geometry">
            <mxPoint x="350" y="220" as="sourcePoint" />
            <mxPoint x="400" y="170" as="targetPoint" />
          </mxGeometry>
        </mxCell>
        <mxCell id="bVbc2CpXDPPesVSVmDMA-11" value="&lt;span style=&quot;color: rgba(0 , 0 , 0 , 0) ; font-family: monospace ; font-size: 0px&quot;&gt;%3CmxGraphModel%3E%3Croot%3E%3CmxCell%20id%3D%220%22%2F%3E%3CmxCell%20id%3D%221%22%20parent%3D%220%22%2F%3E%3CmxCell%20id%3D%222%22%20value%3D%22%26lt%3Bb%26gt%3B%26lt%3Bfont%20style%3D%26quot%3Bfont-size%3A%2019px%26quot%3B%26gt%3BT%26lt%3B%2Ffont%26gt%3B%26lt%3B%2Fb%26gt%3B%22%20style%3D%22text%3Bhtml%3D1%3BstrokeColor%3Dnone%3BfillColor%3Dnone%3Balign%3Dcenter%3BverticalAlign%3Dmiddle%3BwhiteSpace%3Dwrap%3Brounded%3D0%3B%22%20vertex%3D%221%22%20parent%3D%221%22%3E%3CmxGeometry%20x%3D%22220%22%20y%3D%22220%22%20width%3D%2240%22%20height%3D%2220%22%20as%3D%22geometry%22%2F%3E%3C%2FmxCell%3E%3C%2Froot%3E%3C%2FmxGraphModel%3E&lt;/span&gt;T = 25&lt;br&gt;P(+) = 1&lt;br&gt;P(-) = 0&lt;br&gt;Error = 1-1=0" style="shape=note;strokeWidth=2;fontSize=14;size=20;whiteSpace=wrap;html=1;fillColor=#fff2cc;strokeColor=#d6b656;fontColor=#666600;" vertex="1" parent="bVbc2CpXDPPesVSVmDMA-26">
          <mxGeometry x="30" y="290" width="100" height="80" as="geometry" />
        </mxCell>
        <mxCell id="bVbc2CpXDPPesVSVmDMA-12" value="&lt;span style=&quot;color: rgba(0 , 0 , 0 , 0) ; font-family: monospace ; font-size: 0px&quot;&gt;%3CmxGraphModel%3E%3Croot%3E%3CmxCell%20id%3D%220%22%2F%3E%3CmxCell%20id%3D%221%22%20parent%3D%220%22%2F%3E%3CmxCell%20id%3D%222%22%20value%3D%22%26lt%3Bb%26gt%3B%26lt%3Bfont%20style%3D%26quot%3Bfont-size%3A%2019px%26quot%3B%26gt%3BT%26lt%3B%2Ffont%26gt%3B%26lt%3B%2Fb%26gt%3B%22%20style%3D%22text%3Bhtml%3D1%3BstrokeColor%3Dnone%3BfillColor%3Dnone%3Balign%3Dcenter%3BverticalAlign%3Dmiddle%3BwhiteSpace%3Dwrap%3Brounded%3D0%3B%22%20vertex%3D%221%22%20parent%3D%221%22%3E%3CmxGeometry%20x%3D%22220%22%20y%3D%22220%22%20width%3D%2240%22%20height%3D%2220%22%20as%3D%22geometry%22%2F%3E%3C%2FmxCell%3E%3C%2Froot%3E%3C%2FmxGraphModel%3E&lt;/span&gt;T = 75&lt;br&gt;P(+) = 25/75&lt;br&gt;P(-) = 50/75&lt;br&gt;Error = 1-(2/3)=1/3" style="shape=note;strokeWidth=2;fontSize=14;size=20;whiteSpace=wrap;html=1;fillColor=#fff2cc;strokeColor=#d6b656;fontColor=#666600;" vertex="1" parent="bVbc2CpXDPPesVSVmDMA-26">
          <mxGeometry x="360" y="290" width="120" height="80" as="geometry" />
        </mxCell>
        <mxCell id="bVbc2CpXDPPesVSVmDMA-13" value="&lt;blockquote style=&quot;margin: 0px 0px 0px 40px ; border: none ; padding: 0px&quot;&gt;&lt;b style=&quot;font-size: 15px&quot;&gt;&lt;br&gt;&lt;/b&gt;&lt;/blockquote&gt;&lt;blockquote style=&quot;margin: 0px 0px 0px 40px ; border: none ; padding: 0px&quot;&gt;&lt;b style=&quot;font-size: 15px&quot;&gt;Error&amp;nbsp; = (25/100)*0 + (75/100)* (1/3) = 3/12 = 1/4&lt;/b&gt;&lt;br&gt;&lt;/blockquote&gt;" style="shape=note;whiteSpace=wrap;html=1;size=14;verticalAlign=top;align=center;spacingTop=-6;fillColor=#d5e8d4;strokeColor=#82b366;" vertex="1" parent="bVbc2CpXDPPesVSVmDMA-26">
          <mxGeometry y="390" width="510" height="70" as="geometry" />
        </mxCell>
        <mxCell id="bVbc2CpXDPPesVSVmDMA-27" value="" style="group" vertex="1" connectable="0" parent="1">
          <mxGeometry x="420" y="530" width="510" height="460" as="geometry" />
        </mxCell>
        <mxCell id="bVbc2CpXDPPesVSVmDMA-28" value="&lt;font style=&quot;font-size: 57px&quot; color=&quot;#0066cc&quot;&gt;B&lt;/font&gt;" style="ellipse;whiteSpace=wrap;html=1;aspect=fixed;fillColor=#dae8fc;strokeColor=#6c8ebf;" vertex="1" parent="bVbc2CpXDPPesVSVmDMA-27">
          <mxGeometry x="150" width="180" height="180" as="geometry" />
        </mxCell>
        <mxCell id="bVbc2CpXDPPesVSVmDMA-29" value="" style="ellipse;whiteSpace=wrap;html=1;aspect=fixed;fillColor=#dae8fc;strokeColor=#6c8ebf;" vertex="1" parent="bVbc2CpXDPPesVSVmDMA-27">
          <mxGeometry x="70" y="260" width="110" height="110" as="geometry" />
        </mxCell>
        <mxCell id="bVbc2CpXDPPesVSVmDMA-30" value="&lt;span style=&quot;color: rgba(0 , 0 , 0 , 0) ; font-family: monospace ; font-size: 0px&quot;&gt;mxGraphModel%3E%3Croot%3E%3CmxCell%20id%3D%220%22%2F%3E%3CmxCell%20id%3D%221%22%20parent%3D%220%22%2F%3E%3CmxCell%20id%3D%222%22%20value%3D%22%26lt%3Bb%26gt%3B%26lt%3Bfont%20style%3D%26quot%3Bfont-size%3A%2019px%26quot%3B%26gt%3BT%26lt%3B%2Ffont%26gt%3B%26lt%3B%2Fb%26gt%3B%22%20style%3D%22text%3Bhtml%3D1%3BstrokeColor%3Dnone%3BfillColor%3Dnone%3Balign%3Dcenter%3BverticalAlign%3Dmiddle%3BwhiteSpace%3Dwrap%3Brounded%3D0%3B%22%20vertex%3D%221%22%20parent%3D%221%22%3E%3CmxGeometry%20x%3D%22220%22%20y%3D%22220%22%20width%3D%2240%22%20height%3D%2220%22%20as%3D%22geometry%22%2F%3E%3C%2FmxCell%3E%3C%2Froot%3E%3C%2FmxGraphModel%3E&lt;/span&gt;T = 100&lt;br&gt;P(+) = .5&lt;br&gt;P(-) = .5&lt;br&gt;Error = 1-.5=.5" style="shape=note;strokeWidth=2;fontSize=14;size=20;whiteSpace=wrap;html=1;fillColor=#fff2cc;strokeColor=#d6b656;fontColor=#666600;" vertex="1" parent="bVbc2CpXDPPesVSVmDMA-27">
          <mxGeometry x="280" y="20" width="100" height="80" as="geometry" />
        </mxCell>
        <mxCell id="bVbc2CpXDPPesVSVmDMA-31" value="" style="ellipse;whiteSpace=wrap;html=1;aspect=fixed;fillColor=#dae8fc;strokeColor=#6c8ebf;" vertex="1" parent="bVbc2CpXDPPesVSVmDMA-27">
          <mxGeometry x="300" y="260" width="110" height="110" as="geometry" />
        </mxCell>
        <mxCell id="bVbc2CpXDPPesVSVmDMA-32" value="" style="endArrow=classic;html=1;exitX=0;exitY=1;exitDx=0;exitDy=0;entryX=0.5;entryY=0;entryDx=0;entryDy=0;" edge="1" parent="bVbc2CpXDPPesVSVmDMA-27" source="bVbc2CpXDPPesVSVmDMA-28" target="bVbc2CpXDPPesVSVmDMA-29">
          <mxGeometry width="50" height="50" relative="1" as="geometry">
            <mxPoint x="350" y="240" as="sourcePoint" />
            <mxPoint x="400" y="190" as="targetPoint" />
          </mxGeometry>
        </mxCell>
        <mxCell id="bVbc2CpXDPPesVSVmDMA-33" value="&lt;b&gt;&lt;font style=&quot;font-size: 19px&quot;&gt;T&lt;/font&gt;&lt;/b&gt;" style="text;html=1;strokeColor=none;fillColor=none;align=center;verticalAlign=middle;whiteSpace=wrap;rounded=0;" vertex="1" parent="bVbc2CpXDPPesVSVmDMA-27">
          <mxGeometry x="120" y="190" width="40" height="20" as="geometry" />
        </mxCell>
        <mxCell id="bVbc2CpXDPPesVSVmDMA-34" value="&lt;b&gt;&lt;font style=&quot;font-size: 19px&quot;&gt;F&lt;/font&gt;&lt;/b&gt;" style="text;html=1;strokeColor=none;fillColor=none;align=center;verticalAlign=middle;whiteSpace=wrap;rounded=0;" vertex="1" parent="bVbc2CpXDPPesVSVmDMA-27">
          <mxGeometry x="320" y="190" width="40" height="20" as="geometry" />
        </mxCell>
        <mxCell id="bVbc2CpXDPPesVSVmDMA-35" value="" style="endArrow=classic;html=1;exitX=1;exitY=1;exitDx=0;exitDy=0;entryX=0.5;entryY=0;entryDx=0;entryDy=0;" edge="1" parent="bVbc2CpXDPPesVSVmDMA-27" source="bVbc2CpXDPPesVSVmDMA-28" target="bVbc2CpXDPPesVSVmDMA-31">
          <mxGeometry width="50" height="50" relative="1" as="geometry">
            <mxPoint x="350" y="220" as="sourcePoint" />
            <mxPoint x="400" y="170" as="targetPoint" />
          </mxGeometry>
        </mxCell>
        <mxCell id="bVbc2CpXDPPesVSVmDMA-36" value="&lt;span style=&quot;color: rgba(0 , 0 , 0 , 0) ; font-family: monospace ; font-size: 0px&quot;&gt;%3CmxGraphModel%3E%3Croot%3E%3CmxCell%20id%3D%220%22%2F%3E%3CmxCell%20id%3D%221%22%20parent%3D%220%22%2F%3E%3CmxCell%20id%3D%222%22%20value%3D%22%26lt%3Bb%26gt%3B%26lt%3Bfont%20style%3D%26quot%3Bfont-size%3A%2019px%26quot%3B%26gt%3BT%26lt%3B%2Ffont%26gt%3B%26lt%3B%2Fb%26gt%3B%22%20style%3D%22text%3Bhtml%3D1%3BstrokeColor%3Dnone%3BfillColor%3Dnone%3Balign%3Dcenter%3BverticalAlign%3Dmiddle%3BwhiteSpace%3Dwrap%3Brounded%3D0%3B%22%20vertex%3D%221%22%20parent%3D%221%22%3E%3CmxGeometry%20x%3D%22220%22%20y%3D%22220%22%20width%3D%2240%22%20height%3D%2220%22%20as%3D%22geometry%22%2F%3E%3C%2FmxCell%3E%3C%2Froot%3E%3C%2FmxGraphModel%3E&lt;/span&gt;T = 50&lt;br&gt;P(+) = 30/50&lt;br&gt;P(-) = 20/50&lt;br&gt;Error = 1-(3/5)=2/5" style="shape=note;strokeWidth=2;fontSize=14;size=20;whiteSpace=wrap;html=1;fillColor=#fff2cc;strokeColor=#d6b656;fontColor=#666600;" vertex="1" parent="bVbc2CpXDPPesVSVmDMA-27">
          <mxGeometry y="290" width="130" height="80" as="geometry" />
        </mxCell>
        <mxCell id="bVbc2CpXDPPesVSVmDMA-37" value="&lt;span style=&quot;color: rgba(0 , 0 , 0 , 0) ; font-family: monospace ; font-size: 0px&quot;&gt;%3CmxGraphModel%3E%3Croot%3E%3CmxCell%20id%3D%220%22%2F%3E%3CmxCell%20id%3D%221%22%20parent%3D%220%22%2F%3E%3CmxCell%20id%3D%222%22%20value%3D%22%26lt%3Bb%26gt%3B%26lt%3Bfont%20style%3D%26quot%3Bfont-size%3A%2019px%26quot%3B%26gt%3BT%26lt%3B%2Ffont%26gt%3B%26lt%3B%2Fb%26gt%3B%22%20style%3D%22text%3Bhtml%3D1%3BstrokeColor%3Dnone%3BfillColor%3Dnone%3Balign%3Dcenter%3BverticalAlign%3Dmiddle%3BwhiteSpace%3Dwrap%3Brounded%3D0%3B%22%20vertex%3D%221%22%20parent%3D%221%22%3E%3CmxGeometry%20x%3D%22220%22%20y%3D%22220%22%20width%3D%2240%22%20height%3D%2220%22%20as%3D%22geometry%22%2F%3E%3C%2FmxCell%3E%3C%2Froot%3E%3C%2FmxGraphModel%3E&lt;/span&gt;T = 50&lt;br&gt;P(+) = 20/50&lt;br&gt;P(-) = 30/50&lt;br&gt;Error = 1-(3/5)=2/5" style="shape=note;strokeWidth=2;fontSize=14;size=20;whiteSpace=wrap;html=1;fillColor=#fff2cc;strokeColor=#d6b656;fontColor=#666600;" vertex="1" parent="bVbc2CpXDPPesVSVmDMA-27">
          <mxGeometry x="360" y="290" width="120" height="80" as="geometry" />
        </mxCell>
        <mxCell id="bVbc2CpXDPPesVSVmDMA-38" value="&lt;blockquote style=&quot;margin: 0px 0px 0px 40px ; border: none ; padding: 0px&quot;&gt;&lt;b style=&quot;font-size: 15px&quot;&gt;&lt;br&gt;&lt;/b&gt;&lt;/blockquote&gt;&lt;blockquote style=&quot;margin: 0px 0px 0px 40px ; border: none ; padding: 0px&quot;&gt;&lt;b style=&quot;font-size: 15px&quot;&gt;Error&amp;nbsp; = (50/100)*(2/5) + (50/100)* (2/5) = 2/5&lt;/b&gt;&lt;br&gt;&lt;/blockquote&gt;" style="shape=note;whiteSpace=wrap;html=1;size=14;verticalAlign=top;align=center;spacingTop=-6;fillColor=#d5e8d4;strokeColor=#82b366;" vertex="1" parent="bVbc2CpXDPPesVSVmDMA-27">
          <mxGeometry y="390" width="510" height="70" as="geometry" />
        </mxCell>
        <mxCell id="bVbc2CpXDPPesVSVmDMA-39" value="" style="group" vertex="1" connectable="0" parent="1">
          <mxGeometry x="50" y="1020" width="510" height="460" as="geometry" />
        </mxCell>
        <mxCell id="bVbc2CpXDPPesVSVmDMA-40" value="&lt;font style=&quot;font-size: 57px&quot; color=&quot;#0066cc&quot;&gt;C&lt;/font&gt;" style="ellipse;whiteSpace=wrap;html=1;aspect=fixed;fillColor=#dae8fc;strokeColor=#6c8ebf;" vertex="1" parent="bVbc2CpXDPPesVSVmDMA-39">
          <mxGeometry x="150" width="180" height="180" as="geometry" />
        </mxCell>
        <mxCell id="bVbc2CpXDPPesVSVmDMA-41" value="" style="ellipse;whiteSpace=wrap;html=1;aspect=fixed;fillColor=#dae8fc;strokeColor=#6c8ebf;" vertex="1" parent="bVbc2CpXDPPesVSVmDMA-39">
          <mxGeometry x="70" y="260" width="110" height="110" as="geometry" />
        </mxCell>
        <mxCell id="bVbc2CpXDPPesVSVmDMA-42" value="&lt;span style=&quot;color: rgba(0 , 0 , 0 , 0) ; font-family: monospace ; font-size: 0px&quot;&gt;%3CmxGraphModel%3E%3Croot%3E%3CmxCell%20id%3D%220%22%2F%3E%3CmxCell%20id%3D%221%22%20parent%3D%220%22%2F%3E%3CmxCell%20id%3D%222%22%20value%3D%22%26lt%3Bb%26gt%3B%26lt%3Bfont%20style%3D%26quot%3Bfont-size%3A%2019px%26quot%3B%26gt%3BT%26lt%3B%2Ffont%26gt%3B%26lt%3B%2Fb%26gt%3B%22%20style%3D%22text%3Bhtml%3D1%3BstrokeColor%3Dnone%3BfillColor%3Dnone%3Balign%3Dcenter%3BverticalAlign%3Dmiddle%3BwhiteSpace%3Dwrap%3Brounded%3D0%3B%22%20vertex%3D%221%22%20parent%3D%221%22%3E%3CmxGeometry%20x%3D%22220%22%20y%3D%22220%22%20width%3D%2240%22%20height%3D%2220%22%20as%3D%22geometry%22%2F%3E%3C%2FmxCell%3E%3C%2Froot%3E%3C%2FmxGraphModel%3E&lt;/span&gt;T=100&lt;br&gt;P(+) = .5&lt;br&gt;P(-) = .5&lt;br&gt;Error = 1-.5=.5" style="shape=note;strokeWidth=2;fontSize=14;size=20;whiteSpace=wrap;html=1;fillColor=#fff2cc;strokeColor=#d6b656;fontColor=#666600;" vertex="1" parent="bVbc2CpXDPPesVSVmDMA-39">
          <mxGeometry x="280" y="20" width="100" height="80" as="geometry" />
        </mxCell>
        <mxCell id="bVbc2CpXDPPesVSVmDMA-43" value="" style="ellipse;whiteSpace=wrap;html=1;aspect=fixed;fillColor=#dae8fc;strokeColor=#6c8ebf;" vertex="1" parent="bVbc2CpXDPPesVSVmDMA-39">
          <mxGeometry x="300" y="260" width="110" height="110" as="geometry" />
        </mxCell>
        <mxCell id="bVbc2CpXDPPesVSVmDMA-44" value="" style="endArrow=classic;html=1;exitX=0;exitY=1;exitDx=0;exitDy=0;entryX=0.5;entryY=0;entryDx=0;entryDy=0;" edge="1" parent="bVbc2CpXDPPesVSVmDMA-39" source="bVbc2CpXDPPesVSVmDMA-40" target="bVbc2CpXDPPesVSVmDMA-41">
          <mxGeometry width="50" height="50" relative="1" as="geometry">
            <mxPoint x="350" y="240" as="sourcePoint" />
            <mxPoint x="400" y="190" as="targetPoint" />
          </mxGeometry>
        </mxCell>
        <mxCell id="bVbc2CpXDPPesVSVmDMA-45" value="&lt;b&gt;&lt;font style=&quot;font-size: 19px&quot;&gt;T&lt;/font&gt;&lt;/b&gt;" style="text;html=1;strokeColor=none;fillColor=none;align=center;verticalAlign=middle;whiteSpace=wrap;rounded=0;" vertex="1" parent="bVbc2CpXDPPesVSVmDMA-39">
          <mxGeometry x="120" y="190" width="40" height="20" as="geometry" />
        </mxCell>
        <mxCell id="bVbc2CpXDPPesVSVmDMA-46" value="&lt;b&gt;&lt;font style=&quot;font-size: 19px&quot;&gt;F&lt;/font&gt;&lt;/b&gt;" style="text;html=1;strokeColor=none;fillColor=none;align=center;verticalAlign=middle;whiteSpace=wrap;rounded=0;" vertex="1" parent="bVbc2CpXDPPesVSVmDMA-39">
          <mxGeometry x="320" y="190" width="40" height="20" as="geometry" />
        </mxCell>
        <mxCell id="bVbc2CpXDPPesVSVmDMA-47" value="" style="endArrow=classic;html=1;exitX=1;exitY=1;exitDx=0;exitDy=0;entryX=0.5;entryY=0;entryDx=0;entryDy=0;" edge="1" parent="bVbc2CpXDPPesVSVmDMA-39" source="bVbc2CpXDPPesVSVmDMA-40" target="bVbc2CpXDPPesVSVmDMA-43">
          <mxGeometry width="50" height="50" relative="1" as="geometry">
            <mxPoint x="350" y="220" as="sourcePoint" />
            <mxPoint x="400" y="170" as="targetPoint" />
          </mxGeometry>
        </mxCell>
        <mxCell id="bVbc2CpXDPPesVSVmDMA-48" value="&lt;span style=&quot;color: rgba(0 , 0 , 0 , 0) ; font-family: monospace ; font-size: 0px&quot;&gt;%3CmxGraphModel%3E%3Croot%3E%3CmxCell%20id%3D%220%22%2F%3E%3CmxCell%20id%3D%221%22%20parent%3D%220%22%2F%3E%3CmxCell%20id%3D%222%22%20value%3D%22%26lt%3Bb%26gt%3B%26lt%3Bfont%20style%3D%26quot%3Bfont-size%3A%2019px%26quot%3B%26gt%3BT%26lt%3B%2Ffont%26gt%3B%26lt%3B%2Fb%26gt%3B%22%20style%3D%22text%3Bhtml%3D1%3BstrokeColor%3Dnone%3BfillColor%3Dnone%3Balign%3Dcenter%3BverticalAlign%3Dmiddle%3BwhiteSpace%3Dwrap%3Brounded%3D0%3B%22%20vertex%3D%221%22%20parent%3D%221%22%3E%3CmxGeometry%20x%3D%22220%22%20y%3D%22220%22%20width%3D%2240%22%20height%3D%2220%22%20as%3D%22geometry%22%2F%3E%3C%2FmxCell%3E%3C%2Froot%3E%3C%2FmxGraphModel%3E&lt;/span&gt;T = 50&lt;br&gt;P(+) = 25/50&lt;br&gt;P(-) = 25/50&lt;br&gt;Error = 1-(1/2)=1/2" style="shape=note;strokeWidth=2;fontSize=14;size=20;whiteSpace=wrap;html=1;fillColor=#fff2cc;strokeColor=#d6b656;fontColor=#666600;" vertex="1" parent="bVbc2CpXDPPesVSVmDMA-39">
          <mxGeometry x="10" y="290" width="120" height="80" as="geometry" />
        </mxCell>
        <mxCell id="bVbc2CpXDPPesVSVmDMA-49" value="&lt;span style=&quot;color: rgba(0 , 0 , 0 , 0) ; font-family: monospace ; font-size: 0px&quot;&gt;%3CmxGraphModel%3E%3Croot%3E%3CmxCell%20id%3D%220%22%2F%3E%3CmxCell%20id%3D%221%22%20parent%3D%220%22%2F%3E%3CmxCell%20id%3D%222%22%20value%3D%22%26lt%3Bb%26gt%3B%26lt%3Bfont%20style%3D%26quot%3Bfont-size%3A%2019px%26quot%3B%26gt%3BT%26lt%3B%2Ffont%26gt%3B%26lt%3B%2Fb%26gt%3B%22%20style%3D%22text%3Bhtml%3D1%3BstrokeColor%3Dnone%3BfillColor%3Dnone%3Balign%3Dcenter%3BverticalAlign%3Dmiddle%3BwhiteSpace%3Dwrap%3Brounded%3D0%3B%22%20vertex%3D%221%22%20parent%3D%221%22%3E%3CmxGeometry%20x%3D%22220%22%20y%3D%22220%22%20width%3D%2240%22%20height%3D%2220%22%20as%3D%22geometry%22%2F%3E%3C%2FmxCell%3E%3C%2Froot%3E%3C%2FmxGraphModel%3E&lt;/span&gt;T = 50&lt;br&gt;P(+) = 25/50&lt;br&gt;P(-) = 25/50&lt;br&gt;Error = 1-(1/2)=1/2" style="shape=note;strokeWidth=2;fontSize=14;size=20;whiteSpace=wrap;html=1;fillColor=#fff2cc;strokeColor=#d6b656;fontColor=#666600;" vertex="1" parent="bVbc2CpXDPPesVSVmDMA-39">
          <mxGeometry x="360" y="290" width="120" height="80" as="geometry" />
        </mxCell>
        <mxCell id="bVbc2CpXDPPesVSVmDMA-50" value="&lt;blockquote style=&quot;margin: 0px 0px 0px 40px ; border: none ; padding: 0px&quot;&gt;&lt;b style=&quot;font-size: 15px&quot;&gt;&lt;br&gt;&lt;/b&gt;&lt;/blockquote&gt;&lt;blockquote style=&quot;margin: 0px 0px 0px 40px ; border: none ; padding: 0px&quot;&gt;&lt;b style=&quot;font-size: 15px&quot;&gt;Error&amp;nbsp; = (50/100)*(1/2) + (50/100)* (1/2) = 1/2&lt;/b&gt;&lt;br&gt;&lt;/blockquote&gt;" style="shape=note;whiteSpace=wrap;html=1;size=14;verticalAlign=top;align=center;spacingTop=-6;fillColor=#d5e8d4;strokeColor=#82b366;" vertex="1" parent="bVbc2CpXDPPesVSVmDMA-39">
          <mxGeometry y="390" width="510" height="70" as="geometry" />
        </mxCell>
        <mxCell id="bVbc2CpXDPPesVSVmDMA-52" value="&lt;font style=&quot;font-size: 29px&quot;&gt;El atributo de menor error es &lt;font color=&quot;#ff33ff&quot;&gt;&lt;b&gt;A &lt;/b&gt;&lt;/font&gt;con 1/4, por lo que es el mejor atributo de acuerdo al error de clasificación.&lt;/font&gt;" style="whiteSpace=wrap;html=1;shape=mxgraph.basic.document;fillColor=#e1d5e7;strokeColor=#9673a6;" vertex="1" parent="1">
          <mxGeometry x="650" y="1260" width="250" height="330" as="geometry" />
        </mxCell>
      </root>
    </mxGraphModel>
  </diagram>
</mxfile>
